<svg xmlns="http://www.w3.org/2000/svg" width="403px" height="259px" version="1.1"><g><line style="stroke-width: 2px; stroke: black; fill:white" x1="312.00" x2="306.00" y1="252.03" y2="252.03" /><line style="stroke-width: 2px; stroke: black; fill:white" x1="306.00" x2="306.01" y1="252.03" y2="246.03" /><line style="stroke-width: 2px; stroke: black; fill:white" x1="306.01" x2="312.01" y1="246.03" y2="246.03" /><line style="stroke-width: 2px; stroke: black; fill:white" x1="312.01" x2="312.01" y1="246.03" y2="240.03" /><line style="stroke-width: 2px; stroke: black; fill:white" x1="312.01" x2="312.01" y1="240.03" y2="234.03" /><line style="stroke-width: 2px; stroke: black; fill:white" x1="312.01" x2="306.01" y1="234.03" y2="234.03" /><line style="stroke-width: 2px; stroke: black; fill:white" x1="306.01" x2="306.01" y1="234.03" y2="240.03" /><line style="stroke-width: 2px; stroke: black; fill:white" x1="306.01" x2="294.01" y1="240.03" y2="234.03" /><line style="stroke-width: 2px; stroke: black; fill:white" x1="294.01" x2="294.01" y1="234.03" y2="228.03" /><line style="stroke-width: 2px; stroke: black; fill:white" x1="294.01" x2="288.01" y1="228.03" y2="228.03" /><line style="stroke-width: 2px; stroke: black; fill:white" x1="288.01" x2="288.01" y1="228.03" y2="234.03" /><line style="stroke-width: 2px; stroke: black; fill:white" x1="288.01" x2="282.00" y1="234.03" y2="234.03" /><line style="stroke-width: 2px; stroke: black; fill:white" x1="282.00" x2="288.00" y1="234.03" y2="234.03" /><line style="stroke-width: 2px; stroke: black; fill:white" x1="288.00" x2="288.01" y1="234.03" y2="240.03" /><line style="stroke-width: 2px; stroke: black; fill:white" x1="288.01" x2="282.01" y1="240.03" y2="240.03" /><line style="stroke-width: 2px; stroke: black; fill:white" x1="282.01" x2="282.00" y1="240.03" y2="252.02" /><line style="stroke-width: 2px; stroke: black; fill:white" x1="282.00" x2="282.00" y1="252.02" y2="246.02" /><line style="stroke-width: 2px; stroke: black; fill:white" x1="282.00" x2="276.00" y1="246.02" y2="246.02" /><line style="stroke-width: 2px; stroke: black; fill:white" x1="276.00" x2="276.00" y1="246.02" y2="252.02" /><line style="stroke-width: 2px; stroke: black; fill:white" x1="276.00" x2="270.00" y1="252.02" y2="252.02" /><line style="stroke-width: 2px; stroke: black; fill:white" x1="270.00" x2="264.00" y1="252.02" y2="252.02" /><line style="stroke-width: 2px; stroke: black; fill:white" x1="264.00" x2="264.00" y1="252.02" y2="246.02" /><line style="stroke-width: 2px; stroke: black; fill:white" x1="264.00" x2="270.00" y1="246.02" y2="246.02" /><line style="stroke-width: 2px; stroke: black; fill:white" x1="270.00" x2="264.00" y1="246.02" y2="234.02" /><line style="stroke-width: 2px; stroke: black; fill:white" x1="264.00" x2="258.00" y1="234.02" y2="234.02" /><line style="stroke-width: 2px; stroke: black; fill:white" x1="258.00" x2="258.00" y1="234.02" y2="228.02" /><line style="stroke-width: 2px; stroke: black; fill:white" x1="258.00" x2="264.00" y1="228.02" y2="228.02" /><line style="stroke-width: 2px; stroke: black; fill:white" x1="264.00" x2="264.01" y1="228.02" y2="222.02" /><line style="stroke-width: 2px; stroke: black; fill:white" x1="264.01" x2="264.00" y1="222.02" y2="228.02" /><line style="stroke-width: 2px; stroke: black; fill:white" x1="264.00" x2="270.00" y1="228.02" y2="228.02" /><line style="stroke-width: 2px; stroke: black; fill:white" x1="270.00" x2="270.01" y1="228.02" y2="222.02" /><line style="stroke-width: 2px; stroke: black; fill:white" x1="270.01" x2="258.01" y1="222.02" y2="186.02" /><line style="stroke-width: 2px; stroke: black; fill:white" x1="258.01" x2="258.01" y1="186.02" y2="180.02" /><line style="stroke-width: 2px; stroke: black; fill:white" x1="258.01" x2="252.01" y1="180.02" y2="180.02" /><line style="stroke-width: 2px; stroke: black; fill:white" x1="252.01" x2="252.01" y1="180.02" y2="186.02" /><line style="stroke-width: 2px; stroke: black; fill:white" x1="252.01" x2="246.01" y1="186.02" y2="186.01" /><line style="stroke-width: 2px; stroke: black; fill:white" x1="246.01" x2="240.01" y1="186.01" y2="186.01" /><line style="stroke-width: 2px; stroke: black; fill:white" x1="240.01" x2="240.01" y1="186.01" y2="180.01" /><line style="stroke-width: 2px; stroke: black; fill:white" x1="240.01" x2="246.01" y1="180.01" y2="180.01" /><line style="stroke-width: 2px; stroke: black; fill:white" x1="246.01" x2="240.02" y1="180.01" y2="168.01" /><line style="stroke-width: 2px; stroke: black; fill:white" x1="240.02" x2="234.02" y1="168.01" y2="168.01" /><line style="stroke-width: 2px; stroke: black; fill:white" x1="234.02" x2="234.02" y1="168.01" y2="162.01" /><line style="stroke-width: 2px; stroke: black; fill:white" x1="234.02" x2="240.02" y1="162.01" y2="162.01" /><line style="stroke-width: 2px; stroke: black; fill:white" x1="240.02" x2="240.02" y1="162.01" y2="156.01" /><line style="stroke-width: 2px; stroke: black; fill:white" x1="240.02" x2="240.02" y1="156.01" y2="162.01" /><line style="stroke-width: 2px; stroke: black; fill:white" x1="240.02" x2="246.02" y1="162.01" y2="162.01" /><line style="stroke-width: 2px; stroke: black; fill:white" x1="246.02" x2="246.02" y1="162.01" y2="156.01" /><line style="stroke-width: 2px; stroke: black; fill:white" x1="246.02" x2="240.03" y1="156.01" y2="138.01" /><line style="stroke-width: 2px; stroke: black; fill:white" x1="240.03" x2="246.03" y1="138.01" y2="138.01" /><line style="stroke-width: 2px; stroke: black; fill:white" x1="246.03" x2="246.03" y1="138.01" y2="144.01" /><line style="stroke-width: 2px; stroke: black; fill:white" x1="246.03" x2="240.03" y1="144.01" y2="144.01" /><line style="stroke-width: 2px; stroke: black; fill:white" x1="240.03" x2="240.02" y1="144.01" y2="150.01" /><line style="stroke-width: 2px; stroke: black; fill:white" x1="240.02" x2="240.02" y1="150.01" y2="156.01" /><line style="stroke-width: 2px; stroke: black; fill:white" x1="240.02" x2="246.02" y1="156.01" y2="156.01" /><line style="stroke-width: 2px; stroke: black; fill:white" x1="246.02" x2="246.02" y1="156.01" y2="150.01" /><line style="stroke-width: 2px; stroke: black; fill:white" x1="246.02" x2="258.02" y1="150.01" y2="156.02" /><line style="stroke-width: 2px; stroke: black; fill:white" x1="258.02" x2="258.02" y1="156.02" y2="162.02" /><line style="stroke-width: 2px; stroke: black; fill:white" x1="258.02" x2="264.02" y1="162.02" y2="162.02" /><line style="stroke-width: 2px; stroke: black; fill:white" x1="264.02" x2="264.02" y1="162.02" y2="156.02" /><line style="stroke-width: 2px; stroke: black; fill:white" x1="264.02" x2="270.02" y1="156.02" y2="156.02" /><line style="stroke-width: 2px; stroke: black; fill:white" x1="270.02" x2="264.02" y1="156.02" y2="156.02" /><line style="stroke-width: 2px; stroke: black; fill:white" x1="264.02" x2="264.02" y1="156.02" y2="150.02" /><line style="stroke-width: 2px; stroke: black; fill:white" x1="264.02" x2="270.02" y1="150.02" y2="150.02" /><line style="stroke-width: 2px; stroke: black; fill:white" x1="270.02" x2="324.02" y1="150.02" y2="156.01" /><line style="stroke-width: 2px; stroke: black; fill:white" x1="324.02" x2="324.02" y1="156.01" y2="150.01" /><line style="stroke-width: 2px; stroke: black; fill:white" x1="324.02" x2="318.02" y1="150.01" y2="150.01" /><line style="stroke-width: 2px; stroke: black; fill:white" x1="318.02" x2="318.02" y1="150.01" y2="156.01" /><line style="stroke-width: 2px; stroke: black; fill:white" x1="318.02" x2="312.01" y1="156.01" y2="156.01" /><line style="stroke-width: 2px; stroke: black; fill:white" x1="312.01" x2="306.01" y1="156.01" y2="156.01" /><line style="stroke-width: 2px; stroke: black; fill:white" x1="306.01" x2="306.02" y1="156.01" y2="150.01" /><line style="stroke-width: 2px; stroke: black; fill:white" x1="306.02" x2="312.02" y1="150.01" y2="150.01" /><line style="stroke-width: 2px; stroke: black; fill:white" x1="312.02" x2="306.02" y1="150.01" y2="138.01" /><line style="stroke-width: 2px; stroke: black; fill:white" x1="306.02" x2="300.02" y1="138.01" y2="138.01" /><line style="stroke-width: 2px; stroke: black; fill:white" x1="300.02" x2="300.02" y1="138.01" y2="132.01" /><line style="stroke-width: 2px; stroke: black; fill:white" x1="300.02" x2="306.02" y1="132.01" y2="132.01" /><line style="stroke-width: 2px; stroke: black; fill:white" x1="306.02" x2="306.02" y1="132.01" y2="126.01" /><line style="stroke-width: 2px; stroke: black; fill:white" x1="306.02" x2="306.02" y1="126.01" y2="132.01" /><line style="stroke-width: 2px; stroke: black; fill:white" x1="306.02" x2="312.02" y1="132.01" y2="132.01" /><line style="stroke-width: 2px; stroke: black; fill:white" x1="312.02" x2="312.02" y1="132.01" y2="126.01" /><line style="stroke-width: 2px; stroke: black; fill:white" x1="312.02" x2="324.02" y1="126.01" y2="126.01" /><line style="stroke-width: 2px; stroke: black; fill:white" x1="324.02" x2="318.02" y1="126.01" y2="126.01" /><line style="stroke-width: 2px; stroke: black; fill:white" x1="318.02" x2="318.02" y1="126.01" y2="120.01" /><line style="stroke-width: 2px; stroke: black; fill:white" x1="318.02" x2="324.02" y1="120.01" y2="120.01" /><line style="stroke-width: 2px; stroke: black; fill:white" x1="324.02" x2="324.02" y1="120.01" y2="114.01" /><line style="stroke-width: 2px; stroke: black; fill:white" x1="324.02" x2="324.02" y1="114.01" y2="108.01" /><line style="stroke-width: 2px; stroke: black; fill:white" x1="324.02" x2="318.02" y1="108.01" y2="108.01" /><line style="stroke-width: 2px; stroke: black; fill:white" x1="318.02" x2="318.02" y1="108.01" y2="114.01" /><line style="stroke-width: 2px; stroke: black; fill:white" x1="318.02" x2="306.02" y1="114.01" y2="108.01" /><line style="stroke-width: 2px; stroke: black; fill:white" x1="306.02" x2="306.02" y1="108.01" y2="102.01" /><line style="stroke-width: 2px; stroke: black; fill:white" x1="306.02" x2="300.02" y1="102.01" y2="102.01" /><line style="stroke-width: 2px; stroke: black; fill:white" x1="300.02" x2="300.02" y1="102.01" y2="108.01" /><line style="stroke-width: 2px; stroke: black; fill:white" x1="300.02" x2="294.02" y1="108.01" y2="108.01" /><line style="stroke-width: 2px; stroke: black; fill:white" x1="294.02" x2="300.02" y1="108.01" y2="108.01" /><line style="stroke-width: 2px; stroke: black; fill:white" x1="300.02" x2="300.02" y1="108.01" y2="114.01" /><line style="stroke-width: 2px; stroke: black; fill:white" x1="300.02" x2="294.02" y1="114.01" y2="114.01" /><line style="stroke-width: 2px; stroke: black; fill:white" x1="294.02" x2="258.02" y1="114.01" y2="102.01" /><line style="stroke-width: 2px; stroke: black; fill:white" x1="258.02" x2="252.02" y1="102.01" y2="102.01" /><line style="stroke-width: 2px; stroke: black; fill:white" x1="252.02" x2="252.02" y1="102.01" y2="96.01" /><line style="stroke-width: 2px; stroke: black; fill:white" x1="252.02" x2="258.02" y1="96.01" y2="96.01" /><line style="stroke-width: 2px; stroke: black; fill:white" x1="258.02" x2="258.02" y1="96.01" y2="90.01" /><line style="stroke-width: 2px; stroke: black; fill:white" x1="258.02" x2="258.02" y1="90.01" y2="84.01" /><line style="stroke-width: 2px; stroke: black; fill:white" x1="258.02" x2="252.02" y1="84.01" y2="84.01" /><line style="stroke-width: 2px; stroke: black; fill:white" x1="252.02" x2="252.02" y1="84.01" y2="90.01" /><line style="stroke-width: 2px; stroke: black; fill:white" x1="252.02" x2="240.02" y1="90.01" y2="84.01" /><line style="stroke-width: 2px; stroke: black; fill:white" x1="240.02" x2="240.02" y1="84.01" y2="78.01" /><line style="stroke-width: 2px; stroke: black; fill:white" x1="240.02" x2="234.02" y1="78.01" y2="78.01" /><line style="stroke-width: 2px; stroke: black; fill:white" x1="234.02" x2="234.02" y1="78.01" y2="84.01" /><line style="stroke-width: 2px; stroke: black; fill:white" x1="234.02" x2="228.02" y1="84.01" y2="84.01" /><line style="stroke-width: 2px; stroke: black; fill:white" x1="228.02" x2="234.02" y1="84.01" y2="84.01" /><line style="stroke-width: 2px; stroke: black; fill:white" x1="234.02" x2="234.02" y1="84.01" y2="90.01" /><line style="stroke-width: 2px; stroke: black; fill:white" x1="234.02" x2="228.02" y1="90.01" y2="90.01" /><line style="stroke-width: 2px; stroke: black; fill:white" x1="228.02" x2="210.01" y1="90.01" y2="84.01" /><line style="stroke-width: 2px; stroke: black; fill:white" x1="210.01" x2="210.01" y1="84.01" y2="90.01" /><line style="stroke-width: 2px; stroke: black; fill:white" x1="210.01" x2="216.01" y1="90.01" y2="90.01" /><line style="stroke-width: 2px; stroke: black; fill:white" x1="216.01" x2="216.01" y1="90.01" y2="84.01" /><line style="stroke-width: 2px; stroke: black; fill:white" x1="216.01" x2="222.01" y1="84.01" y2="84.01" /><line style="stroke-width: 2px; stroke: black; fill:white" x1="222.01" x2="228.01" y1="84.01" y2="84.01" /><line style="stroke-width: 2px; stroke: black; fill:white" x1="228.01" x2="228.01" y1="84.01" y2="90.01" /><line style="stroke-width: 2px; stroke: black; fill:white" x1="228.01" x2="222.01" y1="90.01" y2="90.01" /><line style="stroke-width: 2px; stroke: black; fill:white" x1="222.01" x2="228.02" y1="90.01" y2="102.01" /><line style="stroke-width: 2px; stroke: black; fill:white" x1="228.02" x2="234.02" y1="102.01" y2="102.01" /><line style="stroke-width: 2px; stroke: black; fill:white" x1="234.02" x2="234.02" y1="102.01" y2="108.01" /><line style="stroke-width: 2px; stroke: black; fill:white" x1="234.02" x2="228.02" y1="108.01" y2="108.01" /><line style="stroke-width: 2px; stroke: black; fill:white" x1="228.02" x2="228.02" y1="108.01" y2="114.01" /><line style="stroke-width: 2px; stroke: black; fill:white" x1="228.02" x2="228.02" y1="114.01" y2="108.01" /><line style="stroke-width: 2px; stroke: black; fill:white" x1="228.02" x2="222.02" y1="108.01" y2="108.01" /><line style="stroke-width: 2px; stroke: black; fill:white" x1="222.02" x2="222.02" y1="108.01" y2="114.01" /><line style="stroke-width: 2px; stroke: black; fill:white" x1="222.02" x2="90.00" y1="114.01" y2="78.01" /><line style="stroke-width: 2px; stroke: black; fill:white" x1="90.00" x2="90.00" y1="78.01" y2="72.01" /><line style="stroke-width: 2px; stroke: black; fill:white" x1="90.00" x2="84.00" y1="72.01" y2="72.01" /><line style="stroke-width: 2px; stroke: black; fill:white" x1="84.00" x2="84.00" y1="72.01" y2="78.01" /><line style="stroke-width: 2px; stroke: black; fill:white" x1="84.00" x2="78.00" y1="78.01" y2="78.00" /><line style="stroke-width: 2px; stroke: black; fill:white" x1="78.00" x2="72.00" y1="78.00" y2="78.00" /><line style="stroke-width: 2px; stroke: black; fill:white" x1="72.00" x2="72.00" y1="78.00" y2="72.00" /><line style="stroke-width: 2px; stroke: black; fill:white" x1="72.00" x2="78.00" y1="72.00" y2="72.00" /><line style="stroke-width: 2px; stroke: black; fill:white" x1="78.00" x2="72.00" y1="72.00" y2="60.00" /><line style="stroke-width: 2px; stroke: black; fill:white" x1="72.00" x2="66.00" y1="60.00" y2="60.00" /><line style="stroke-width: 2px; stroke: black; fill:white" x1="66.00" x2="66.00" y1="60.00" y2="54.00" /><line style="stroke-width: 2px; stroke: black; fill:white" x1="66.00" x2="72.00" y1="54.00" y2="54.00" /><line style="stroke-width: 2px; stroke: black; fill:white" x1="72.00" x2="72.00" y1="54.00" y2="48.00" /><line style="stroke-width: 2px; stroke: black; fill:white" x1="72.00" x2="72.00" y1="48.00" y2="54.00" /><line style="stroke-width: 2px; stroke: black; fill:white" x1="72.00" x2="78.00" y1="54.00" y2="54.00" /><line style="stroke-width: 2px; stroke: black; fill:white" x1="78.00" x2="78.00" y1="54.00" y2="48.00" /><line style="stroke-width: 2px; stroke: black; fill:white" x1="78.00" x2="90.00" y1="48.00" y2="48.00" /><line style="stroke-width: 2px; stroke: black; fill:white" x1="90.00" x2="84.00" y1="48.00" y2="48.00" /><line style="stroke-width: 2px; stroke: black; fill:white" x1="84.00" x2="84.00" y1="48.00" y2="42.00" /><line style="stroke-width: 2px; stroke: black; fill:white" x1="84.00" x2="90.00" y1="42.00" y2="42.00" /><line style="stroke-width: 2px; stroke: black; fill:white" x1="90.00" x2="90.00" y1="42.00" y2="36.00" /><line style="stroke-width: 2px; stroke: black; fill:white" x1="90.00" x2="90.00" y1="36.00" y2="30.00" /><line style="stroke-width: 2px; stroke: black; fill:white" x1="90.00" x2="84.00" y1="30.00" y2="30.00" /><line style="stroke-width: 2px; stroke: black; fill:white" x1="84.00" x2="84.00" y1="30.00" y2="36.00" /><line style="stroke-width: 2px; stroke: black; fill:white" x1="84.00" x2="72.00" y1="36.00" y2="30.00" /><line style="stroke-width: 2px; stroke: black; fill:white" x1="72.00" x2="72.00" y1="30.00" y2="24.00" /><line style="stroke-width: 2px; stroke: black; fill:white" x1="72.00" x2="66.00" y1="24.00" y2="24.00" /><line style="stroke-width: 2px; stroke: black; fill:white" x1="66.00" x2="66.00" y1="24.00" y2="30.00" /><line style="stroke-width: 2px; stroke: black; fill:white" x1="66.00" x2="60.00" y1="30.00" y2="30.00" /><line style="stroke-width: 2px; stroke: black; fill:white" x1="60.00" x2="66.00" y1="30.00" y2="30.00" /><line style="stroke-width: 2px; stroke: black; fill:white" x1="66.00" x2="66.00" y1="30.00" y2="36.00" /><line style="stroke-width: 2px; stroke: black; fill:white" x1="66.00" x2="60.00" y1="36.00" y2="36.00" /><line style="stroke-width: 2px; stroke: black; fill:white" x1="60.00" x2="24.00" y1="36.00" y2="24.00" /><line style="stroke-width: 2px; stroke: black; fill:white" x1="24.00" x2="18.00" y1="24.00" y2="24.00" /><line style="stroke-width: 2px; stroke: black; fill:white" x1="18.00" x2="18.00" y1="24.00" y2="18.00" /><line style="stroke-width: 2px; stroke: black; fill:white" x1="18.00" x2="24.00" y1="18.00" y2="18.00" /><line style="stroke-width: 2px; stroke: black; fill:white" x1="24.00" x2="24.00" y1="18.00" y2="12.00" /><line style="stroke-width: 2px; stroke: black; fill:white" x1="24.00" x2="24.00" y1="12.00" y2="6.00" /><line style="stroke-width: 2px; stroke: black; fill:white" x1="24.00" x2="18.00" y1="6.00" y2="6.00" /><line style="stroke-width: 2px; stroke: black; fill:white" x1="18.00" x2="18.00" y1="6.00" y2="12.00" /><line style="stroke-width: 2px; stroke: black; fill:white" x1="18.00" x2="6.00" y1="12.00" y2="6.00" /><line style="stroke-width: 2px; stroke: black; fill:white" x1="6.00" x2="6.00" y1="6.00" y2="0.00" /><line style="stroke-width: 2px; stroke: black; fill:white" x1="6.00" x2="0.00" y1="0.00" y2="0.00" /><line style="stroke-width: 2px; stroke: black; fill:white" x1="0.00" x2="0.00" y1="0.00" y2="6.00" /><line style="stroke-width: 2px; stroke: black; fill:white" x1="0.00" x2="-6.00" y1="6.00" y2="6.00" /><line style="stroke-width: 2px; stroke: black; fill:white" x1="-6.00" x2="-0.00" y1="6.00" y2="6.00" /><line style="stroke-width: 2px; stroke: black; fill:white" x1="-0.00" x2="0.00" y1="6.00" y2="12.00" /><line style="stroke-width: 2px; stroke: black; fill:white" x1="0.00" x2="-6.00" y1="12.00" y2="12.00" /><line style="stroke-width: 2px; stroke: black; fill:white" x1="-6.00" x2="-24.01" y1="12.00" y2="6.01" /><line style="stroke-width: 2px; stroke: black; fill:white" x1="-24.01" x2="-24.00" y1="6.01" y2="12.01" /><line style="stroke-width: 2px; stroke: black; fill:white" x1="-24.00" x2="-18.00" y1="12.01" y2="12.00" /><line style="stroke-width: 2px; stroke: black; fill:white" x1="-18.00" x2="-18.01" y1="12.00" y2="6.00" /><line style="stroke-width: 2px; stroke: black; fill:white" x1="-18.01" x2="-12.00" y1="6.00" y2="6.00" /><line style="stroke-width: 2px; stroke: black; fill:white" x1="-12.00" x2="-6.00" y1="6.00" y2="6.00" /><line style="stroke-width: 2px; stroke: black; fill:white" x1="-6.00" x2="-6.00" y1="6.00" y2="12.00" /><line style="stroke-width: 2px; stroke: black; fill:white" x1="-6.00" x2="-12.00" y1="12.00" y2="12.00" /><line style="stroke-width: 2px; stroke: black; fill:white" x1="-12.00" x2="-6.00" y1="12.00" y2="24.00" /><line style="stroke-width: 2px; stroke: black; fill:white" x1="-6.00" x2="-0.00" y1="24.00" y2="24.00" /><line style="stroke-width: 2px; stroke: black; fill:white" x1="-0.00" x2="0.00" y1="24.00" y2="30.00" /><line style="stroke-width: 2px; stroke: black; fill:white" x1="0.00" x2="-6.00" y1="30.00" y2="30.00" /><line style="stroke-width: 2px; stroke: black; fill:white" x1="-6.00" x2="-6.00" y1="30.00" y2="36.00" /><line style="stroke-width: 2px; stroke: black; fill:white" x1="-6.00" x2="-6.00" y1="36.00" y2="30.00" /><line style="stroke-width: 2px; stroke: black; fill:white" x1="-6.00" x2="-12.00" y1="30.00" y2="30.00" /><line style="stroke-width: 2px; stroke: black; fill:white" x1="-12.00" x2="-12.00" y1="30.00" y2="36.00" /><line style="stroke-width: 2px; stroke: black; fill:white" x1="-12.00" x2="-78.02" y1="36.00" y2="-5.98" /><line style="stroke-width: 2px; stroke: black; fill:white" x1="-78.02" x2="-72.02" y1="-5.98" y2="-5.98" /><line style="stroke-width: 2px; stroke: black; fill:white" x1="-72.02" x2="-72.02" y1="-5.98" y2="0.02" /><line style="stroke-width: 2px; stroke: black; fill:white" x1="-72.02" x2="-78.02" y1="0.02" y2="0.02" /><line style="stroke-width: 2px; stroke: black; fill:white" x1="-78.02" x2="-78.02" y1="0.02" y2="6.02" /><line style="stroke-width: 2px; stroke: black; fill:white" x1="-78.02" x2="-78.02" y1="6.02" y2="12.02" /><line style="stroke-width: 2px; stroke: black; fill:white" x1="-78.02" x2="-72.02" y1="12.02" y2="12.02" /><line style="stroke-width: 2px; stroke: black; fill:white" x1="-72.02" x2="-72.02" y1="12.02" y2="6.02" /><line style="stroke-width: 2px; stroke: black; fill:white" x1="-72.02" x2="-60.02" y1="6.02" y2="12.02" /><line style="stroke-width: 2px; stroke: black; fill:white" x1="-60.02" x2="-60.02" y1="12.02" y2="18.02" /><line style="stroke-width: 2px; stroke: black; fill:white" x1="-60.02" x2="-54.02" y1="18.02" y2="18.01" /><line style="stroke-width: 2px; stroke: black; fill:white" x1="-54.02" x2="-54.02" y1="18.01" y2="12.01" /><line style="stroke-width: 2px; stroke: black; fill:white" x1="-54.02" x2="-48.02" y1="12.01" y2="12.01" /><line style="stroke-width: 2px; stroke: black; fill:white" x1="-48.02" x2="-54.02" y1="12.01" y2="12.01" /><line style="stroke-width: 2px; stroke: black; fill:white" x1="-54.02" x2="-54.02" y1="12.01" y2="6.01" /><line style="stroke-width: 2px; stroke: black; fill:white" x1="-54.02" x2="-48.02" y1="6.01" y2="6.01" /><line style="stroke-width: 2px; stroke: black; fill:white" x1="-48.02" x2="-48.02" y1="6.01" y2="-5.99" /><line style="stroke-width: 2px; stroke: black; fill:white" x1="-48.02" x2="-48.02" y1="-5.99" y2="0.01" /><line style="stroke-width: 2px; stroke: black; fill:white" x1="-48.02" x2="-42.02" y1="0.01" y2="0.01" /><line style="stroke-width: 2px; stroke: black; fill:white" x1="-42.02" x2="-42.02" y1="0.01" y2="-5.99" /><line style="stroke-width: 2px; stroke: black; fill:white" x1="-42.02" x2="-36.02" y1="-5.99" y2="-5.99" /><line style="stroke-width: 2px; stroke: black; fill:white" x1="-36.02" x2="-30.02" y1="-5.99" y2="-5.99" /><line style="stroke-width: 2px; stroke: black; fill:white" x1="-30.02" x2="-30.02" y1="-5.99" y2="0.01" /><line style="stroke-width: 2px; stroke: black; fill:white" x1="-30.02" x2="-36.02" y1="0.01" y2="0.01" /><line style="stroke-width: 2px; stroke: black; fill:white" x1="-36.02" x2="-30.02" y1="0.01" y2="12.01" /><line style="stroke-width: 2px; stroke: black; fill:white" x1="-30.02" x2="-24.02" y1="12.01" y2="12.01" /><line style="stroke-width: 2px; stroke: black; fill:white" x1="-24.02" x2="-24.01" y1="12.01" y2="18.01" /><line style="stroke-width: 2px; stroke: black; fill:white" x1="-24.01" x2="-30.01" y1="18.01" y2="18.01" /><line style="stroke-width: 2px; stroke: black; fill:white" x1="-30.01" x2="-30.01" y1="18.01" y2="24.01" /><line style="stroke-width: 2px; stroke: black; fill:white" x1="-30.01" x2="-30.01" y1="24.01" y2="18.01" /><line style="stroke-width: 2px; stroke: black; fill:white" x1="-30.01" x2="-36.01" y1="18.01" y2="18.01" /><line style="stroke-width: 2px; stroke: black; fill:white" x1="-36.01" x2="-36.01" y1="18.01" y2="24.01" /><line style="stroke-width: 2px; stroke: black; fill:white" x1="-36.01" x2="-24.01" y1="24.01" y2="60.01" /><line style="stroke-width: 2px; stroke: black; fill:white" x1="-24.01" x2="-24.00" y1="60.01" y2="66.01" /><line style="stroke-width: 2px; stroke: black; fill:white" x1="-24.00" x2="-18.00" y1="66.01" y2="66.01" /><line style="stroke-width: 2px; stroke: black; fill:white" x1="-18.00" x2="-18.01" y1="66.01" y2="60.01" /><line style="stroke-width: 2px; stroke: black; fill:white" x1="-18.01" x2="-12.00" y1="60.01" y2="60.01" /><line style="stroke-width: 2px; stroke: black; fill:white" x1="-12.00" x2="-6.00" y1="60.01" y2="60.01" /><line style="stroke-width: 2px; stroke: black; fill:white" x1="-6.00" x2="-6.00" y1="60.01" y2="66.01" /><line style="stroke-width: 2px; stroke: black; fill:white" x1="-6.00" x2="-12.00" y1="66.01" y2="66.01" /><line style="stroke-width: 2px; stroke: black; fill:white" x1="-12.00" x2="-6.00" y1="66.01" y2="78.01" /><line style="stroke-width: 2px; stroke: black; fill:white" x1="-6.00" x2="-0.00" y1="78.01" y2="78.01" /><line style="stroke-width: 2px; stroke: black; fill:white" x1="-0.00" x2="0.00" y1="78.01" y2="84.01" /><line style="stroke-width: 2px; stroke: black; fill:white" x1="0.00" x2="-6.00" y1="84.01" y2="84.01" /><line style="stroke-width: 2px; stroke: black; fill:white" x1="-6.00" x2="-6.00" y1="84.01" y2="90.01" /><line style="stroke-width: 2px; stroke: black; fill:white" x1="-6.00" x2="-6.00" y1="90.01" y2="84.01" /><line style="stroke-width: 2px; stroke: black; fill:white" x1="-6.00" x2="-12.00" y1="84.01" y2="84.01" /><line style="stroke-width: 2px; stroke: black; fill:white" x1="-12.00" x2="-12.00" y1="84.01" y2="90.01" /><line style="stroke-width: 2px; stroke: black; fill:white" x1="-12.00" x2="-6.00" y1="90.01" y2="108.01" /><line style="stroke-width: 2px; stroke: black; fill:white" x1="-6.00" x2="-12.00" y1="108.01" y2="108.01" /><line style="stroke-width: 2px; stroke: black; fill:white" x1="-12.00" x2="-12.00" y1="108.01" y2="102.01" /><line style="stroke-width: 2px; stroke: black; fill:white" x1="-12.00" x2="-6.00" y1="102.01" y2="102.01" /><line style="stroke-width: 2px; stroke: black; fill:white" x1="-6.00" x2="-6.00" y1="102.01" y2="96.01" /><line style="stroke-width: 2px; stroke: black; fill:white" x1="-6.00" x2="-6.00" y1="96.01" y2="90.01" /><line style="stroke-width: 2px; stroke: black; fill:white" x1="-6.00" x2="-12.00" y1="90.01" y2="90.01" /><line style="stroke-width: 2px; stroke: black; fill:white" x1="-12.00" x2="-12.00" y1="90.01" y2="96.01" /><line style="stroke-width: 2px; stroke: black; fill:white" x1="-12.00" x2="-24.00" y1="96.01" y2="90.01" /><line style="stroke-width: 2px; stroke: black; fill:white" x1="-24.00" x2="-24.00" y1="90.01" y2="84.01" /><line style="stroke-width: 2px; stroke: black; fill:white" x1="-24.00" x2="-30.00" y1="84.01" y2="84.01" /><line style="stroke-width: 2px; stroke: black; fill:white" x1="-30.00" x2="-30.00" y1="84.01" y2="90.01" /><line style="stroke-width: 2px; stroke: black; fill:white" x1="-30.00" x2="-36.00" y1="90.01" y2="90.01" /><line style="stroke-width: 2px; stroke: black; fill:white" x1="-36.00" x2="-30.00" y1="90.01" y2="90.01" /><line style="stroke-width: 2px; stroke: black; fill:white" x1="-30.00" x2="-30.00" y1="90.01" y2="96.01" /><line style="stroke-width: 2px; stroke: black; fill:white" x1="-30.00" x2="-36.00" y1="96.01" y2="96.01" /></g></svg>