<svg xmlns="http://www.w3.org/2000/svg" width="471px" height="298px" version="1.1"><g><line style="stroke-width: 2px; stroke: black; fill:white" x1="300.53" x2="295.16" y1="297.29" y2="294.60" /><line style="stroke-width: 2px; stroke: black; fill:white" x1="295.16" x2="297.85" y1="294.60" y2="289.23" /><line style="stroke-width: 2px; stroke: black; fill:white" x1="297.85" x2="303.22" y1="289.23" y2="291.92" /><line style="stroke-width: 2px; stroke: black; fill:white" x1="303.22" x2="303.85" y1="291.92" y2="283.23" /><line style="stroke-width: 2px; stroke: black; fill:white" x1="303.85" x2="303.85" y1="283.23" y2="277.23" /><line style="stroke-width: 2px; stroke: black; fill:white" x1="303.85" x2="297.85" y1="277.23" y2="277.23" /><line style="stroke-width: 2px; stroke: black; fill:white" x1="297.85" x2="297.85" y1="277.23" y2="283.23" /><line style="stroke-width: 2px; stroke: black; fill:white" x1="297.85" x2="285.85" y1="283.23" y2="277.23" /><line style="stroke-width: 2px; stroke: black; fill:white" x1="285.85" x2="285.85" y1="277.23" y2="271.23" /><line style="stroke-width: 2px; stroke: black; fill:white" x1="285.85" x2="279.85" y1="271.23" y2="271.23" /><line style="stroke-width: 2px; stroke: black; fill:white" x1="279.85" x2="279.85" y1="271.23" y2="277.23" /><line style="stroke-width: 2px; stroke: black; fill:white" x1="279.85" x2="271.80" y1="277.23" y2="280.56" /><line style="stroke-width: 2px; stroke: black; fill:white" x1="271.80" x2="277.16" y1="280.56" y2="277.87" /><line style="stroke-width: 2px; stroke: black; fill:white" x1="277.16" x2="279.85" y1="277.87" y2="283.23" /><line style="stroke-width: 2px; stroke: black; fill:white" x1="279.85" x2="274.49" y1="283.23" y2="285.92" /><line style="stroke-width: 2px; stroke: black; fill:white" x1="274.49" x2="265.22" y1="285.92" y2="287.03" /><line style="stroke-width: 2px; stroke: black; fill:white" x1="265.22" x2="265.22" y1="287.03" y2="281.03" /><line style="stroke-width: 2px; stroke: black; fill:white" x1="265.22" x2="259.22" y1="281.03" y2="281.03" /><line style="stroke-width: 2px; stroke: black; fill:white" x1="259.22" x2="259.22" y1="281.03" y2="287.03" /><line style="stroke-width: 2px; stroke: black; fill:white" x1="259.22" x2="251.17" y1="287.03" y2="283.70" /><line style="stroke-width: 2px; stroke: black; fill:white" x1="251.17" x2="245.81" y1="283.70" y2="281.02" /><line style="stroke-width: 2px; stroke: black; fill:white" x1="245.81" x2="248.50" y1="281.02" y2="275.65" /><line style="stroke-width: 2px; stroke: black; fill:white" x1="248.50" x2="253.86" y1="275.65" y2="278.34" /><line style="stroke-width: 2px; stroke: black; fill:white" x1="253.86" x2="253.87" y1="278.34" y2="264.92" /><line style="stroke-width: 2px; stroke: black; fill:white" x1="253.87" x2="248.51" y1="264.92" y2="262.24" /><line style="stroke-width: 2px; stroke: black; fill:white" x1="248.51" x2="251.20" y1="262.24" y2="256.87" /><line style="stroke-width: 2px; stroke: black; fill:white" x1="251.20" x2="256.56" y1="256.87" y2="259.56" /><line style="stroke-width: 2px; stroke: black; fill:white" x1="256.56" x2="263.14" y1="259.56" y2="253.85" /><line style="stroke-width: 2px; stroke: black; fill:white" x1="263.14" x2="258.34" y1="253.85" y2="257.44" /><line style="stroke-width: 2px; stroke: black; fill:white" x1="258.34" x2="261.93" y1="257.44" y2="262.25" /><line style="stroke-width: 2px; stroke: black; fill:white" x1="261.93" x2="266.73" y1="262.25" y2="258.66" /><line style="stroke-width: 2px; stroke: black; fill:white" x1="266.73" x2="273.35" y1="258.66" y2="212.68" /><line style="stroke-width: 2px; stroke: black; fill:white" x1="273.35" x2="273.35" y1="212.68" y2="206.68" /><line style="stroke-width: 2px; stroke: black; fill:white" x1="273.35" x2="267.35" y1="206.68" y2="206.68" /><line style="stroke-width: 2px; stroke: black; fill:white" x1="267.35" x2="267.35" y1="206.68" y2="212.68" /><line style="stroke-width: 2px; stroke: black; fill:white" x1="267.35" x2="259.29" y1="212.68" y2="209.36" /><line style="stroke-width: 2px; stroke: black; fill:white" x1="259.29" x2="253.93" y1="209.36" y2="206.67" /><line style="stroke-width: 2px; stroke: black; fill:white" x1="253.93" x2="256.62" y1="206.67" y2="201.30" /><line style="stroke-width: 2px; stroke: black; fill:white" x1="256.62" x2="261.98" y1="201.30" y2="203.99" /><line style="stroke-width: 2px; stroke: black; fill:white" x1="261.98" x2="262.00" y1="203.99" y2="190.58" /><line style="stroke-width: 2px; stroke: black; fill:white" x1="262.00" x2="256.63" y1="190.58" y2="187.89" /><line style="stroke-width: 2px; stroke: black; fill:white" x1="256.63" x2="259.32" y1="187.89" y2="182.52" /><line style="stroke-width: 2px; stroke: black; fill:white" x1="259.32" x2="264.68" y1="182.52" y2="185.21" /><line style="stroke-width: 2px; stroke: black; fill:white" x1="264.68" x2="271.26" y1="185.21" y2="179.50" /><line style="stroke-width: 2px; stroke: black; fill:white" x1="271.26" x2="266.46" y1="179.50" y2="183.09" /><line style="stroke-width: 2px; stroke: black; fill:white" x1="266.46" x2="270.05" y1="183.09" y2="187.90" /><line style="stroke-width: 2px; stroke: black; fill:white" x1="270.05" x2="274.85" y1="187.90" y2="184.31" /><line style="stroke-width: 2px; stroke: black; fill:white" x1="274.85" x2="296.47" y1="184.31" y2="164.73" /><line style="stroke-width: 2px; stroke: black; fill:white" x1="296.47" x2="297.53" y1="164.73" y2="170.64" /><line style="stroke-width: 2px; stroke: black; fill:white" x1="297.53" x2="291.62" y1="170.64" y2="171.69" /><line style="stroke-width: 2px; stroke: black; fill:white" x1="291.62" x2="290.57" y1="171.69" y2="165.79" /><line style="stroke-width: 2px; stroke: black; fill:white" x1="290.57" x2="283.23" y1="165.79" y2="170.48" /><line style="stroke-width: 2px; stroke: black; fill:white" x1="283.23" x2="278.42" y1="170.48" y2="174.07" /><line style="stroke-width: 2px; stroke: black; fill:white" x1="278.42" x2="282.01" y1="174.07" y2="178.87" /><line style="stroke-width: 2px; stroke: black; fill:white" x1="282.01" x2="286.82" y1="178.87" y2="175.28" /><line style="stroke-width: 2px; stroke: black; fill:white" x1="286.82" x2="289.19" y1="175.28" y2="188.49" /><line style="stroke-width: 2px; stroke: black; fill:white" x1="289.19" x2="284.38" y1="188.49" y2="192.08" /><line style="stroke-width: 2px; stroke: black; fill:white" x1="284.38" x2="287.97" y1="192.08" y2="196.89" /><line style="stroke-width: 2px; stroke: black; fill:white" x1="287.97" x2="292.78" y1="196.89" y2="193.30" /><line style="stroke-width: 2px; stroke: black; fill:white" x1="292.78" x2="300.26" y1="193.30" y2="197.76" /><line style="stroke-width: 2px; stroke: black; fill:white" x1="300.26" x2="294.90" y1="197.76" y2="195.07" /><line style="stroke-width: 2px; stroke: black; fill:white" x1="294.90" x2="297.59" y1="195.07" y2="189.70" /><line style="stroke-width: 2px; stroke: black; fill:white" x1="297.59" x2="302.95" y1="189.70" y2="192.39" /><line style="stroke-width: 2px; stroke: black; fill:white" x1="302.95" x2="343.45" y1="192.39" y2="176.52" /><line style="stroke-width: 2px; stroke: black; fill:white" x1="343.45" x2="343.45" y1="176.52" y2="170.52" /><line style="stroke-width: 2px; stroke: black; fill:white" x1="343.45" x2="337.45" y1="170.52" y2="170.52" /><line style="stroke-width: 2px; stroke: black; fill:white" x1="337.45" x2="337.45" y1="170.52" y2="176.52" /><line style="stroke-width: 2px; stroke: black; fill:white" x1="337.45" x2="329.40" y1="176.52" y2="173.20" /><line style="stroke-width: 2px; stroke: black; fill:white" x1="329.40" x2="324.03" y1="173.20" y2="170.51" /><line style="stroke-width: 2px; stroke: black; fill:white" x1="324.03" x2="326.72" y1="170.51" y2="165.15" /><line style="stroke-width: 2px; stroke: black; fill:white" x1="326.72" x2="332.09" y1="165.15" y2="167.84" /><line style="stroke-width: 2px; stroke: black; fill:white" x1="332.09" x2="332.10" y1="167.84" y2="154.42" /><line style="stroke-width: 2px; stroke: black; fill:white" x1="332.10" x2="326.74" y1="154.42" y2="151.73" /><line style="stroke-width: 2px; stroke: black; fill:white" x1="326.74" x2="329.42" y1="151.73" y2="146.37" /><line style="stroke-width: 2px; stroke: black; fill:white" x1="329.42" x2="334.79" y1="146.37" y2="149.06" /><line style="stroke-width: 2px; stroke: black; fill:white" x1="334.79" x2="341.37" y1="149.06" y2="143.35" /><line style="stroke-width: 2px; stroke: black; fill:white" x1="341.37" x2="336.56" y1="143.35" y2="146.94" /><line style="stroke-width: 2px; stroke: black; fill:white" x1="336.56" x2="340.15" y1="146.94" y2="151.74" /><line style="stroke-width: 2px; stroke: black; fill:white" x1="340.15" x2="344.96" y1="151.74" y2="148.15" /><line style="stroke-width: 2px; stroke: black; fill:white" x1="344.96" x2="350.10" y1="148.15" y2="140.37" /><line style="stroke-width: 2px; stroke: black; fill:white" x1="350.10" x2="344.74" y1="140.37" y2="137.68" /><line style="stroke-width: 2px; stroke: black; fill:white" x1="344.74" x2="347.42" y1="137.68" y2="132.31" /><line style="stroke-width: 2px; stroke: black; fill:white" x1="347.42" x2="352.79" y1="132.31" y2="135.00" /><line style="stroke-width: 2px; stroke: black; fill:white" x1="352.79" x2="353.42" y1="135.00" y2="126.31" /><line style="stroke-width: 2px; stroke: black; fill:white" x1="353.42" x2="353.42" y1="126.31" y2="120.31" /><line style="stroke-width: 2px; stroke: black; fill:white" x1="353.42" x2="347.42" y1="120.31" y2="120.31" /><line style="stroke-width: 2px; stroke: black; fill:white" x1="347.42" x2="347.42" y1="120.31" y2="126.31" /><line style="stroke-width: 2px; stroke: black; fill:white" x1="347.42" x2="335.42" y1="126.31" y2="120.31" /><line style="stroke-width: 2px; stroke: black; fill:white" x1="335.42" x2="335.42" y1="120.31" y2="114.31" /><line style="stroke-width: 2px; stroke: black; fill:white" x1="335.42" x2="329.42" y1="114.31" y2="114.31" /><line style="stroke-width: 2px; stroke: black; fill:white" x1="329.42" x2="329.42" y1="114.31" y2="120.31" /><line style="stroke-width: 2px; stroke: black; fill:white" x1="329.42" x2="321.37" y1="120.31" y2="123.64" /><line style="stroke-width: 2px; stroke: black; fill:white" x1="321.37" x2="326.74" y1="123.64" y2="120.95" /><line style="stroke-width: 2px; stroke: black; fill:white" x1="326.74" x2="329.42" y1="120.95" y2="126.31" /><line style="stroke-width: 2px; stroke: black; fill:white" x1="329.42" x2="324.06" y1="126.31" y2="129.00" /><line style="stroke-width: 2px; stroke: black; fill:white" x1="324.06" x2="280.00" y1="129.00" y2="114.31" /><line style="stroke-width: 2px; stroke: black; fill:white" x1="280.00" x2="274.63" y1="114.31" y2="111.63" /><line style="stroke-width: 2px; stroke: black; fill:white" x1="274.63" x2="277.32" y1="111.63" y2="106.26" /><line style="stroke-width: 2px; stroke: black; fill:white" x1="277.32" x2="282.68" y1="106.26" y2="108.95" /><line style="stroke-width: 2px; stroke: black; fill:white" x1="282.68" x2="283.32" y1="108.95" y2="100.26" /><line style="stroke-width: 2px; stroke: black; fill:white" x1="283.32" x2="283.32" y1="100.26" y2="94.26" /><line style="stroke-width: 2px; stroke: black; fill:white" x1="283.32" x2="277.32" y1="94.26" y2="94.26" /><line style="stroke-width: 2px; stroke: black; fill:white" x1="277.32" x2="277.32" y1="94.26" y2="100.26" /><line style="stroke-width: 2px; stroke: black; fill:white" x1="277.32" x2="265.32" y1="100.26" y2="94.26" /><line style="stroke-width: 2px; stroke: black; fill:white" x1="265.32" x2="265.32" y1="94.26" y2="88.26" /><line style="stroke-width: 2px; stroke: black; fill:white" x1="265.32" x2="259.32" y1="88.26" y2="88.26" /><line style="stroke-width: 2px; stroke: black; fill:white" x1="259.32" x2="259.32" y1="88.26" y2="94.26" /><line style="stroke-width: 2px; stroke: black; fill:white" x1="259.32" x2="251.27" y1="94.26" y2="97.59" /><line style="stroke-width: 2px; stroke: black; fill:white" x1="251.27" x2="256.63" y1="97.59" y2="94.90" /><line style="stroke-width: 2px; stroke: black; fill:white" x1="256.63" x2="259.32" y1="94.90" y2="100.26" /><line style="stroke-width: 2px; stroke: black; fill:white" x1="259.32" x2="253.96" y1="100.26" y2="102.95" /><line style="stroke-width: 2px; stroke: black; fill:white" x1="253.96" x2="226.76" y1="102.95" y2="113.50" /><line style="stroke-width: 2px; stroke: black; fill:white" x1="226.76" x2="231.57" y1="113.50" y2="117.09" /><line style="stroke-width: 2px; stroke: black; fill:white" x1="231.57" x2="235.16" y1="117.09" y2="112.29" /><line style="stroke-width: 2px; stroke: black; fill:white" x1="235.16" x2="230.36" y1="112.29" y2="108.70" /><line style="stroke-width: 2px; stroke: black; fill:white" x1="230.36" x2="237.84" y1="108.70" y2="104.24" /><line style="stroke-width: 2px; stroke: black; fill:white" x1="237.84" x2="243.20" y1="104.24" y2="101.55" /><line style="stroke-width: 2px; stroke: black; fill:white" x1="243.20" x2="245.89" y1="101.55" y2="106.91" /><line style="stroke-width: 2px; stroke: black; fill:white" x1="245.89" x2="240.53" y1="106.91" y2="109.60" /><line style="stroke-width: 2px; stroke: black; fill:white" x1="240.53" x2="251.27" y1="109.60" y2="117.64" /><line style="stroke-width: 2px; stroke: black; fill:white" x1="251.27" x2="256.63" y1="117.64" y2="114.95" /><line style="stroke-width: 2px; stroke: black; fill:white" x1="256.63" x2="259.32" y1="114.95" y2="120.31" /><line style="stroke-width: 2px; stroke: black; fill:white" x1="259.32" x2="253.96" y1="120.31" y2="123.00" /><line style="stroke-width: 2px; stroke: black; fill:white" x1="253.96" x2="254.59" y1="123.00" y2="131.69" /><line style="stroke-width: 2px; stroke: black; fill:white" x1="254.59" x2="254.59" y1="131.69" y2="125.69" /><line style="stroke-width: 2px; stroke: black; fill:white" x1="254.59" x2="248.59" y1="125.69" y2="125.69" /><line style="stroke-width: 2px; stroke: black; fill:white" x1="248.59" x2="248.59" y1="125.69" y2="131.69" /><line style="stroke-width: 2px; stroke: black; fill:white" x1="248.59" x2="84.13" y1="131.69" y2="88.26" /><line style="stroke-width: 2px; stroke: black; fill:white" x1="84.13" x2="84.13" y1="88.26" y2="82.26" /><line style="stroke-width: 2px; stroke: black; fill:white" x1="84.13" x2="78.13" y1="82.26" y2="82.26" /><line style="stroke-width: 2px; stroke: black; fill:white" x1="78.13" x2="78.13" y1="82.26" y2="88.26" /><line style="stroke-width: 2px; stroke: black; fill:white" x1="78.13" x2="70.08" y1="88.26" y2="84.94" /><line style="stroke-width: 2px; stroke: black; fill:white" x1="70.08" x2="64.72" y1="84.94" y2="82.25" /><line style="stroke-width: 2px; stroke: black; fill:white" x1="64.72" x2="67.40" y1="82.25" y2="76.89" /><line style="stroke-width: 2px; stroke: black; fill:white" x1="67.40" x2="72.77" y1="76.89" y2="79.57" /><line style="stroke-width: 2px; stroke: black; fill:white" x1="72.77" x2="72.78" y1="79.57" y2="66.16" /><line style="stroke-width: 2px; stroke: black; fill:white" x1="72.78" x2="67.42" y1="66.16" y2="63.47" /><line style="stroke-width: 2px; stroke: black; fill:white" x1="67.42" x2="70.10" y1="63.47" y2="58.10" /><line style="stroke-width: 2px; stroke: black; fill:white" x1="70.10" x2="75.47" y1="58.10" y2="60.79" /><line style="stroke-width: 2px; stroke: black; fill:white" x1="75.47" x2="82.05" y1="60.79" y2="55.08" /><line style="stroke-width: 2px; stroke: black; fill:white" x1="82.05" x2="77.24" y1="55.08" y2="58.67" /><line style="stroke-width: 2px; stroke: black; fill:white" x1="77.24" x2="80.83" y1="58.67" y2="63.48" /><line style="stroke-width: 2px; stroke: black; fill:white" x1="80.83" x2="85.64" y1="63.48" y2="59.89" /><line style="stroke-width: 2px; stroke: black; fill:white" x1="85.64" x2="90.78" y1="59.89" y2="52.10" /><line style="stroke-width: 2px; stroke: black; fill:white" x1="90.78" x2="85.42" y1="52.10" y2="49.42" /><line style="stroke-width: 2px; stroke: black; fill:white" x1="85.42" x2="88.10" y1="49.42" y2="44.05" /><line style="stroke-width: 2px; stroke: black; fill:white" x1="88.10" x2="93.47" y1="44.05" y2="46.74" /><line style="stroke-width: 2px; stroke: black; fill:white" x1="93.47" x2="94.10" y1="46.74" y2="38.05" /><line style="stroke-width: 2px; stroke: black; fill:white" x1="94.10" x2="94.10" y1="38.05" y2="32.05" /><line style="stroke-width: 2px; stroke: black; fill:white" x1="94.10" x2="88.10" y1="32.05" y2="32.05" /><line style="stroke-width: 2px; stroke: black; fill:white" x1="88.10" x2="88.10" y1="32.05" y2="38.05" /><line style="stroke-width: 2px; stroke: black; fill:white" x1="88.10" x2="76.10" y1="38.05" y2="32.05" /><line style="stroke-width: 2px; stroke: black; fill:white" x1="76.10" x2="76.10" y1="32.05" y2="26.05" /><line style="stroke-width: 2px; stroke: black; fill:white" x1="76.10" x2="70.10" y1="26.05" y2="26.05" /><line style="stroke-width: 2px; stroke: black; fill:white" x1="70.10" x2="70.10" y1="26.05" y2="32.05" /><line style="stroke-width: 2px; stroke: black; fill:white" x1="70.10" x2="62.05" y1="32.05" y2="35.38" /><line style="stroke-width: 2px; stroke: black; fill:white" x1="62.05" x2="67.42" y1="35.38" y2="32.69" /><line style="stroke-width: 2px; stroke: black; fill:white" x1="67.42" x2="70.10" y1="32.69" y2="38.05" /><line style="stroke-width: 2px; stroke: black; fill:white" x1="70.10" x2="64.74" y1="38.05" y2="40.74" /><line style="stroke-width: 2px; stroke: black; fill:white" x1="64.74" x2="20.68" y1="40.74" y2="26.05" /><line style="stroke-width: 2px; stroke: black; fill:white" x1="20.68" x2="15.31" y1="26.05" y2="23.36" /><line style="stroke-width: 2px; stroke: black; fill:white" x1="15.31" x2="18.00" y1="23.36" y2="18.00" /><line style="stroke-width: 2px; stroke: black; fill:white" x1="18.00" x2="23.36" y1="18.00" y2="20.69" /><line style="stroke-width: 2px; stroke: black; fill:white" x1="23.36" x2="24.00" y1="20.69" y2="12.00" /><line style="stroke-width: 2px; stroke: black; fill:white" x1="24.00" x2="24.00" y1="12.00" y2="6.00" /><line style="stroke-width: 2px; stroke: black; fill:white" x1="24.00" x2="18.00" y1="6.00" y2="6.00" /><line style="stroke-width: 2px; stroke: black; fill:white" x1="18.00" x2="18.00" y1="6.00" y2="12.00" /><line style="stroke-width: 2px; stroke: black; fill:white" x1="18.00" x2="6.00" y1="12.00" y2="6.00" /><line style="stroke-width: 2px; stroke: black; fill:white" x1="6.00" x2="6.00" y1="6.00" y2="0.00" /><line style="stroke-width: 2px; stroke: black; fill:white" x1="6.00" x2="0.00" y1="0.00" y2="0.00" /><line style="stroke-width: 2px; stroke: black; fill:white" x1="0.00" x2="0.00" y1="0.00" y2="6.00" /><line style="stroke-width: 2px; stroke: black; fill:white" x1="0.00" x2="-8.05" y1="6.00" y2="9.32" /><line style="stroke-width: 2px; stroke: black; fill:white" x1="-8.05" x2="-2.69" y1="9.32" y2="6.64" /><line style="stroke-width: 2px; stroke: black; fill:white" x1="-2.69" x2="0.00" y1="6.64" y2="12.00" /><line style="stroke-width: 2px; stroke: black; fill:white" x1="0.00" x2="-5.36" y1="12.00" y2="14.69" /><line style="stroke-width: 2px; stroke: black; fill:white" x1="-5.36" x2="-32.55" y1="14.69" y2="25.24" /><line style="stroke-width: 2px; stroke: black; fill:white" x1="-32.55" x2="-27.75" y1="25.24" y2="28.83" /><line style="stroke-width: 2px; stroke: black; fill:white" x1="-27.75" x2="-24.16" y1="28.83" y2="24.03" /><line style="stroke-width: 2px; stroke: black; fill:white" x1="-24.16" x2="-28.96" y1="24.03" y2="20.44" /><line style="stroke-width: 2px; stroke: black; fill:white" x1="-28.96" x2="-21.48" y1="20.44" y2="15.97" /><line style="stroke-width: 2px; stroke: black; fill:white" x1="-21.48" x2="-16.12" y1="15.97" y2="13.28" /><line style="stroke-width: 2px; stroke: black; fill:white" x1="-16.12" x2="-13.43" y1="13.28" y2="18.65" /><line style="stroke-width: 2px; stroke: black; fill:white" x1="-13.43" x2="-18.79" y1="18.65" y2="21.34" /><line style="stroke-width: 2px; stroke: black; fill:white" x1="-18.79" x2="-8.05" y1="21.34" y2="29.38" /><line style="stroke-width: 2px; stroke: black; fill:white" x1="-8.05" x2="-2.69" y1="29.38" y2="26.69" /><line style="stroke-width: 2px; stroke: black; fill:white" x1="-2.69" x2="0.00" y1="26.69" y2="32.05" /><line style="stroke-width: 2px; stroke: black; fill:white" x1="0.00" x2="-5.36" y1="32.05" y2="34.74" /><line style="stroke-width: 2px; stroke: black; fill:white" x1="-5.36" x2="-4.73" y1="34.74" y2="43.43" /><line style="stroke-width: 2px; stroke: black; fill:white" x1="-4.73" x2="-4.73" y1="43.43" y2="37.43" /><line style="stroke-width: 2px; stroke: black; fill:white" x1="-4.73" x2="-10.73" y1="37.43" y2="37.43" /><line style="stroke-width: 2px; stroke: black; fill:white" x1="-10.73" x2="-10.73" y1="37.43" y2="43.43" /><line style="stroke-width: 2px; stroke: black; fill:white" x1="-10.73" x2="-116.60" y1="43.43" y2="58.60" /><line style="stroke-width: 2px; stroke: black; fill:white" x1="-116.60" x2="-111.24" y1="58.60" y2="55.91" /><line style="stroke-width: 2px; stroke: black; fill:white" x1="-111.24" x2="-108.55" y1="55.91" y2="61.27" /><line style="stroke-width: 2px; stroke: black; fill:white" x1="-108.55" x2="-113.91" y1="61.27" y2="63.96" /><line style="stroke-width: 2px; stroke: black; fill:white" x1="-113.91" x2="-107.33" y1="63.96" y2="69.67" /><line style="stroke-width: 2px; stroke: black; fill:white" x1="-107.33" x2="-102.53" y1="69.67" y2="73.26" /><line style="stroke-width: 2px; stroke: black; fill:white" x1="-102.53" x2="-98.94" y1="73.26" y2="68.45" /><line style="stroke-width: 2px; stroke: black; fill:white" x1="-98.94" x2="-103.74" y1="68.45" y2="64.86" /><line style="stroke-width: 2px; stroke: black; fill:white" x1="-103.74" x2="-91.76" y1="64.86" y2="58.84" /><line style="stroke-width: 2px; stroke: black; fill:white" x1="-91.76" x2="-86.95" y1="58.84" y2="62.43" /><line style="stroke-width: 2px; stroke: black; fill:white" x1="-86.95" x2="-83.36" y1="62.43" y2="57.62" /><line style="stroke-width: 2px; stroke: black; fill:white" x1="-83.36" x2="-88.16" y1="57.62" y2="54.03" /><line style="stroke-width: 2px; stroke: black; fill:white" x1="-88.16" x2="-86.01" y1="54.03" y2="45.59" /><line style="stroke-width: 2px; stroke: black; fill:white" x1="-86.01" x2="-87.07" y1="45.59" y2="51.50" /><line style="stroke-width: 2px; stroke: black; fill:white" x1="-87.07" x2="-92.97" y1="51.50" y2="50.44" /><line style="stroke-width: 2px; stroke: black; fill:white" x1="-92.97" x2="-91.92" y1="50.44" y2="44.54" /><line style="stroke-width: 2px; stroke: black; fill:white" x1="-91.92" x2="-87.26" y1="44.54" y2="36.45" /><line style="stroke-width: 2px; stroke: black; fill:white" x1="-87.26" x2="-82.45" y1="36.45" y2="40.04" /><line style="stroke-width: 2px; stroke: black; fill:white" x1="-82.45" x2="-78.86" y1="40.04" y2="35.24" /><line style="stroke-width: 2px; stroke: black; fill:white" x1="-78.86" x2="-83.67" y1="35.24" y2="31.64" /><line style="stroke-width: 2px; stroke: black; fill:white" x1="-83.67" x2="-76.18" y1="31.64" y2="27.18" /><line style="stroke-width: 2px; stroke: black; fill:white" x1="-76.18" x2="-70.82" y1="27.18" y2="24.49" /><line style="stroke-width: 2px; stroke: black; fill:white" x1="-70.82" x2="-68.13" y1="24.49" y2="29.86" /><line style="stroke-width: 2px; stroke: black; fill:white" x1="-68.13" x2="-73.50" y1="29.86" y2="32.55" /><line style="stroke-width: 2px; stroke: black; fill:white" x1="-73.50" x2="-62.76" y1="32.55" y2="40.59" /><line style="stroke-width: 2px; stroke: black; fill:white" x1="-62.76" x2="-57.39" y1="40.59" y2="37.90" /><line style="stroke-width: 2px; stroke: black; fill:white" x1="-57.39" x2="-54.70" y1="37.90" y2="43.26" /><line style="stroke-width: 2px; stroke: black; fill:white" x1="-54.70" x2="-60.07" y1="43.26" y2="45.95" /><line style="stroke-width: 2px; stroke: black; fill:white" x1="-60.07" x2="-59.43" y1="45.95" y2="54.64" /><line style="stroke-width: 2px; stroke: black; fill:white" x1="-59.43" x2="-59.43" y1="54.64" y2="48.64" /><line style="stroke-width: 2px; stroke: black; fill:white" x1="-59.43" x2="-65.43" y1="48.64" y2="48.64" /><line style="stroke-width: 2px; stroke: black; fill:white" x1="-65.43" x2="-65.43" y1="48.64" y2="54.64" /><line style="stroke-width: 2px; stroke: black; fill:white" x1="-65.43" x2="-32.55" y1="54.64" y2="87.45" /><line style="stroke-width: 2px; stroke: black; fill:white" x1="-32.55" x2="-27.75" y1="87.45" y2="91.04" /><line style="stroke-width: 2px; stroke: black; fill:white" x1="-27.75" x2="-24.16" y1="91.04" y2="86.24" /><line style="stroke-width: 2px; stroke: black; fill:white" x1="-24.16" x2="-28.96" y1="86.24" y2="82.64" /><line style="stroke-width: 2px; stroke: black; fill:white" x1="-28.96" x2="-21.48" y1="82.64" y2="78.18" /><line style="stroke-width: 2px; stroke: black; fill:white" x1="-21.48" x2="-16.12" y1="78.18" y2="75.49" /><line style="stroke-width: 2px; stroke: black; fill:white" x1="-16.12" x2="-13.43" y1="75.49" y2="80.86" /><line style="stroke-width: 2px; stroke: black; fill:white" x1="-13.43" x2="-18.79" y1="80.86" y2="83.55" /><line style="stroke-width: 2px; stroke: black; fill:white" x1="-18.79" x2="-8.05" y1="83.55" y2="91.59" /><line style="stroke-width: 2px; stroke: black; fill:white" x1="-8.05" x2="-2.69" y1="91.59" y2="88.90" /><line style="stroke-width: 2px; stroke: black; fill:white" x1="-2.69" x2="0.00" y1="88.90" y2="94.26" /><line style="stroke-width: 2px; stroke: black; fill:white" x1="0.00" x2="-5.36" y1="94.26" y2="96.95" /><line style="stroke-width: 2px; stroke: black; fill:white" x1="-5.36" x2="-4.73" y1="96.95" y2="105.64" /><line style="stroke-width: 2px; stroke: black; fill:white" x1="-4.73" x2="-4.73" y1="105.64" y2="99.64" /><line style="stroke-width: 2px; stroke: black; fill:white" x1="-4.73" x2="-10.73" y1="99.64" y2="99.64" /><line style="stroke-width: 2px; stroke: black; fill:white" x1="-10.73" x2="-10.73" y1="99.64" y2="105.64" /><line style="stroke-width: 2px; stroke: black; fill:white" x1="-10.73" x2="-7.98" y1="105.64" y2="134.68" /><line style="stroke-width: 2px; stroke: black; fill:white" x1="-7.98" x2="-13.34" y1="134.68" y2="131.99" /><line style="stroke-width: 2px; stroke: black; fill:white" x1="-13.34" x2="-10.65" y1="131.99" y2="126.62" /><line style="stroke-width: 2px; stroke: black; fill:white" x1="-10.65" x2="-5.29" y1="126.62" y2="129.31" /><line style="stroke-width: 2px; stroke: black; fill:white" x1="-5.29" x2="-4.65" y1="129.31" y2="120.62" /><line style="stroke-width: 2px; stroke: black; fill:white" x1="-4.65" x2="-4.65" y1="120.62" y2="114.62" /><line style="stroke-width: 2px; stroke: black; fill:white" x1="-4.65" x2="-10.65" y1="114.62" y2="114.62" /><line style="stroke-width: 2px; stroke: black; fill:white" x1="-10.65" x2="-10.65" y1="114.62" y2="120.62" /><line style="stroke-width: 2px; stroke: black; fill:white" x1="-10.65" x2="-22.65" y1="120.62" y2="114.62" /><line style="stroke-width: 2px; stroke: black; fill:white" x1="-22.65" x2="-22.65" y1="114.62" y2="108.62" /><line style="stroke-width: 2px; stroke: black; fill:white" x1="-22.65" x2="-28.65" y1="108.62" y2="108.62" /><line style="stroke-width: 2px; stroke: black; fill:white" x1="-28.65" x2="-28.65" y1="108.62" y2="114.62" /><line style="stroke-width: 2px; stroke: black; fill:white" x1="-28.65" x2="-36.71" y1="114.62" y2="117.95" /><line style="stroke-width: 2px; stroke: black; fill:white" x1="-36.71" x2="-31.34" y1="117.95" y2="115.26" /><line style="stroke-width: 2px; stroke: black; fill:white" x1="-31.34" x2="-28.65" y1="115.26" y2="120.62" /><line style="stroke-width: 2px; stroke: black; fill:white" x1="-28.65" x2="-34.02" y1="120.62" y2="123.31" /></g></svg>